<svg width="73" height="32" viewBox="0 0 73 32" fill="none" xmlns="http://www.w3.org/2000/svg">
<path d="M40 22V32H47V29.3684H43V22H40Z" fill="white"/>
<path d="M64 32V22H61.5V28.8421L59.5 24.6316V22H57V32H59.5V28.3158L61 32H64Z" fill="white"/>
<path d="M73 22H65V24.1053H67.6667V32H70.3333V24.1053H73V22Z" fill="white"/>
<rect y="22" width="30" height="10" fill="white"/>
<path fill-rule="evenodd" clip-rule="evenodd" d="M8.91335 4.97989C7.27165 4.07403 6.46706 2.34588 7.11626 1.11996C7.76546 -0.105969 9.6226 -0.365437 11.2643 0.54042C12.6387 1.29881 13.4264 2.63356 13.2655 3.76742C14.5474 4.57138 15.0521 5.47303 15.6506 6.54195L15.6506 6.54197L15.6506 6.54198L15.6506 6.54199C15.7456 6.71167 15.843 6.88557 15.9462 7.06397C16.4397 6.93816 17.253 6.45101 17.5613 4.98396C17.1286 3.7819 17.9318 2.21606 19.4668 1.36908C21.1085 0.463224 22.9656 0.722691 23.6148 1.94862C24.264 3.17454 23.4594 4.90269 21.8177 5.80855C20.5687 6.49771 19.1951 6.51239 18.3235 5.94016C17.8888 7.09731 17.1311 7.70111 16.4498 7.95368C17.7108 10.421 17.8597 13.1942 17.6041 15.7277C17.391 17.8398 16.8898 19.8343 16.4888 21.3824C17.9646 20.9389 19.8271 20.0656 21.4604 18.6514C20.6599 18.5867 19.7185 17.9573 19.0399 16.945C18.0823 15.5163 18.011 13.8658 18.8806 13.2584C19.7502 12.6511 21.2314 13.317 22.189 14.7457C22.7178 15.5345 22.9763 16.391 22.9555 17.1022C23.6536 16.229 24.2486 15.2158 24.6684 14.0474C23.3488 13.3841 22.9173 10.5241 23.719 7.39848C24.5707 4.07799 26.4917 1.71509 28.0098 2.1208C29.5278 2.52651 30.068 5.5472 29.2163 8.8677C28.5042 11.6437 27.0448 13.7504 25.6983 14.1296C25.4901 14.7541 25.2363 15.3396 24.9458 15.8876C25.4971 15.6837 26.2153 15.5773 26.9954 15.6128C28.6896 15.6897 30.0345 16.4063 29.9993 17.2134C29.9641 18.0204 28.5622 18.6123 26.868 18.5353C25.5046 18.4734 24.3674 17.9972 23.9936 17.3929C23.4965 18.0613 22.9441 18.6586 22.3611 19.189C20.3386 21.0288 17.9474 22.0657 16.2022 22.4976L16.1681 22.636L15.8946 22.569C15.8569 22.5772 15.8195 22.585 15.7824 22.5926L15.7715 22.5388L15.1968 22.3981C15.2203 22.302 15.2449 22.2035 15.2703 22.1027H14.3706C14.3706 21.5818 14.1787 20.7711 13.5989 20.0986C13.0348 19.4443 12.0634 18.8737 10.4057 18.8737C9.43312 18.8737 8.64529 18.6472 8.02224 18.2522C7.39985 17.8577 6.97185 17.3141 6.68801 16.7268C6.35559 16.039 6.21537 15.2814 6.18683 14.5927C5.01599 14.7732 3.28389 13.7488 1.94088 11.974C0.316679 9.82759 -0.123379 7.3964 0.957983 6.54379C2.03935 5.69118 4.23264 6.74003 5.85684 8.88645C7.25965 10.7403 7.77913 12.8066 7.19798 13.8847C7.1589 14.3802 7.18288 14.9635 7.31906 15.5266C7.40741 14.4594 7.94953 13.1338 8.88166 11.9019C10.5059 9.75551 12.6992 8.70667 13.7805 9.55927C14.8619 10.4119 14.4218 12.8431 12.7976 14.9895C11.6094 16.5597 10.1166 17.5426 8.97745 17.6233C9.35787 17.7785 9.82659 17.8737 10.4057 17.8737C12.32 17.8737 13.5809 18.5462 14.3563 19.4456C15.0073 20.2007 15.2874 21.0825 15.3542 21.7737C15.3906 21.6321 15.4284 21.4865 15.4671 21.3372C15.8762 19.759 16.3937 17.7629 16.6092 15.6274C16.8759 12.9837 16.6678 10.2091 15.254 7.8589C15.0621 7.5399 14.8981 7.24896 14.747 6.98084C14.1944 6.0001 13.8138 5.32461 12.8659 4.69771C12.0913 5.66255 10.4125 5.80709 8.91335 4.97989Z" fill="white"/>
<path fill-rule="evenodd" clip-rule="evenodd" d="M33 22V32H36V27.2632H39V22H33ZM38 23.0526H37V26.2105H38V23.0526Z" fill="white"/>
<path fill-rule="evenodd" clip-rule="evenodd" d="M48 32V22H54.4L56 32H53.3333L52.8 29.3684H50.6667V32H48ZM52 25H51V28H52V25Z" fill="white"/>
</svg>
