<svg width="154" height="89" viewBox="0 0 154 89" fill="none" xmlns="http://www.w3.org/2000/svg">
<path d="M7.34846 88.217C53.8033 88.0224 147.67 87.75 151.5 88.217C157.032 65.8018 149.212 41.6106 143.007 34.2168C152.049 55.8147 90.0067 50.7167 77.5066 14.7167C74.208 5.21677 59.6432 -3.22218 36.5066 1.21651C19.1159 4.55289 -14.9934 23.7165 7.34846 88.217Z" fill="#4BC291"/>
<path d="M72 65.8966H83.4851V63L91 68.7931L84.0522 75V72.1034H72" stroke="white" stroke-width="2" stroke-linecap="round" stroke-linejoin="round"/>
<path d="M36 62.4917C36.5 55.4917 41.1 42.2917 55.5 45.4917" stroke="#316A53" stroke-linecap="round" stroke-linejoin="round"/>
<path d="M38 62.0002C38.5 55.0002 46 48.5 54 55" stroke="#316A53" stroke-linecap="round" stroke-linejoin="round"/>
<path d="M60 54.1783C55.6 52.5783 52.8333 47.0116 52 44.6783C69.6 40.6783 68.3333 55.3449 65.5 63.1783C65.5 60.8449 64.4 55.7783 60 54.1783Z" fill="#316A53"/>
<path d="M56.7455 58.8379C54.1355 57.9202 52.4943 54.7274 52 53.389C62.4401 51.0948 61.6888 59.5071 60.0081 64C60.0081 62.6617 59.3556 59.7556 56.7455 58.8379Z" fill="#316A53"/>
<rect x="25" y="61" width="22" height="15" rx="5" fill="#328C67"/>
<path fill-rule="evenodd" clip-rule="evenodd" d="M113.766 33.0508C112.047 31.0862 110.082 26.1256 115.976 22C116.222 24.0874 115.829 28.9252 113.766 33.0508ZM106.399 53.6789C113.766 57.5098 113.152 62.3967 111.924 64.3613C113.889 65.098 117.523 66.2031 116.344 64.7297C114.871 62.8879 118.555 56.9941 121.87 54.4156C122.654 53.8054 123.81 53.1745 125.147 52.4449C129.459 50.0916 135.654 46.7109 137.341 39.6812C139.109 32.3141 131.938 29.7355 128.132 29.3672C128.991 29.7355 131.005 31.209 132.184 34.1559C133.657 37.8394 131.816 42.6281 127.027 40.0496C124.381 38.6248 120.765 42.5053 120.396 42.9965C122.164 39.4602 116.222 34.647 113.029 32.6824C113.138 32.7972 113.242 32.9109 113.341 33.0235C112.315 32.5404 109.659 32.0521 106.767 33.7875C107.992 34.3998 111.024 35.1099 113.379 33.0667C119.254 39.7891 108.602 42.6213 108.241 42.2598C104.115 40.1969 100.873 42.3825 99.7683 43.7332C93.857 43.7332 95.6895 35.1289 96.5538 31.0707C96.7785 30.0157 96.9378 29.2679 96.8786 29.0584C103.208 30.0073 102.691 32.8341 101.61 34.1559C103.206 33.5419 105.809 31.5773 103.452 28.6304C101.094 25.6836 97.8037 27.6482 96.453 28.9988C96.5323 29.0091 96.6106 29.0198 96.6879 29.0307C95.3431 29.5205 86.9823 35.6113 89.4542 43.7332C91.0898 49.1072 93.7628 49.7386 97.8493 50.7038C100.205 51.2603 103.031 51.9277 106.399 53.6789ZM128.34 29.0604C126.99 27.7098 123.699 25.7452 121.341 28.692C118.984 31.6389 121.587 33.6035 123.183 34.2175C122.078 32.8668 121.562 29.9445 128.34 29.0604Z" fill="#316A53"/>
<rect x="103" y="61" width="22" height="15" rx="5" fill="#328C67"/>
</svg>
