<svg width="155" height="89" viewBox="0 0 155 89" fill="none" xmlns="http://www.w3.org/2000/svg">
<path d="M146.658 89.0005C100.203 88.8059 6.33628 88.5335 2.50642 89.0005C-3.0256 66.5854 4.79422 42.3941 11 35.0003C1.95728 56.5982 63.9999 51.5002 76.5 15.5002C79.7986 6.00028 94.3634 -2.43867 117.5 2.00002C134.891 5.3364 169 24.5 146.658 89.0005Z" fill="#4BC291"/>
<rect x="25" y="47" width="45" height="34" rx="5" fill="#328C67"/>
<path fill-rule="evenodd" clip-rule="evenodd" d="M41.9227 20.0515L39.5779 20.1613L39.6279 21.1625L40.8827 21.1037C40.2873 21.8107 39.7492 22.6526 39.2886 23.6337C38.9927 24.2639 38.7354 24.8878 38.5136 25.5045C36.897 24.8263 34.8854 24.272 32.5815 24.2723L34.5761 23.2285L34.1125 22.3425L31.6526 23.6297L32.1836 22.2033L31.2465 21.8544L30.5037 23.8495L28.7742 20.6557L27.8949 21.1319L29.7477 24.5535C29.3879 24.625 29.023 24.7114 28.6532 24.8138C21.4293 26.8139 25.2136 35.0677 37.4024 33.5121C37.519 35.0819 37.8191 36.5542 38.2227 37.9071L34.3693 37.7266L34.3193 38.7277L37.9363 38.8972L36.4749 40.4487L37.1985 41.1362L38.2368 40.0339L38.1639 42.8315L39.1613 42.8542L39.2195 40.6219C40.3136 43.1305 41.6188 45.0183 42.3453 46.0691C42.7249 46.6181 42.9465 46.9387 42.8976 47H51.9201C52.6911 45.4586 53.3434 43.9705 53.8872 42.538C59.3087 43.3144 63.1219 42.1736 65.1076 40.467L65.1698 42.8542L66.1672 42.8315L66.0943 40.0339L67.1326 41.1362L67.8562 40.4487L66.3947 38.8972L70.0118 38.7277L69.9618 37.7266L66.6669 37.8809C66.8442 36.5354 66.0947 35.2171 64.3455 34.3765L66.1275 33.444L65.6639 32.558L63.2039 33.8452L63.735 32.4187L62.7978 32.0699L62.1961 33.6862C62.0658 33.6579 61.9361 33.6316 61.8072 33.6072L60.3256 30.8712L59.4462 31.3473L60.5726 33.4274C58.9217 33.2586 57.3969 33.3893 56.0308 33.6827C56.2796 30.9029 56.047 28.4638 55.4706 26.3941L61.3567 26.6699L61.4067 25.6687L55.1492 25.3755C54.9467 24.8042 54.7165 24.2652 54.4622 23.7593L56.7295 21.3524L56.0059 20.6649L53.9539 22.8432C53.6791 22.3934 53.3837 21.9751 53.0707 21.5889L53.1931 16.8951L52.1957 16.8724L52.1 20.5439C49.8753 18.4616 47.051 17.7504 44.4865 18.5898L44.4199 16.0349L43.4225 16.0576L43.4954 18.8552L42.457 17.7529L41.7335 18.4404L42.6976 19.464C42.4332 19.6402 42.1745 19.836 41.9227 20.0515Z" fill="#316A53"/>
<path d="M90 56.2414H118.41V49L137 63.4828L119.813 79V71.7586H90" stroke="white" stroke-width="3" stroke-linecap="round" stroke-linejoin="round"/>
</svg>
